<?xml version="1.0" encoding="iso-8859-1"?>
<!-- Generator: Adobe Illustrator 19.0.0, SVG Export Plug-In . SVG Version: 6.00 Build 0)  -->
<!-- License: CC0. Made by SVG Repo: https://www.svgrepo.com/svg/67988/factory -->
<svg version="1.1" id="Layer_1" xmlns="http://www.w3.org/2000/svg" xmlns:xlink="http://www.w3.org/1999/xlink" x="0px" y="0px"
	 viewBox="0 0 512 512" style="enable-background:new 0 0 512 512;" xml:space="preserve">
<circle style="fill:#F2CF61;" cx="256" cy="256" r="256"/>
<path style="fill:#E6E6E6;" d="M172,476l0.096-82.484l-103.948-42l0.008-7.988l0,0L68.056,428H68v1.696
	c16.668,18.032,35.888,33.656,57.1,46.304H136H172z M100,404v20H84v-20v-4h16V404z M132,404v20h-16v-20v-4h16V404z"/>
<polygon style="fill:#CCCCCC;" points="176.104,387.14 68.156,343.528 68.148,351.516 172.096,393.516 172,476 176,476 "/>
<path style="fill:#CC584C;" d="M176.104,387.14l0.02-17.252l-109.552-44.26c-2.044-0.82-4.388,0.172-5.212,2.212l-2.996,7.416
	c-0.824,2.04,0.168,4.384,2.208,5.208l7.584,3.064l0,0L176.104,387.14z"/>
<rect x="84" y="404" style="fill:#C2E2F2;" width="16" height="20"/>
<rect x="84" y="400" style="fill:#8FA7B3;" width="16" height="4"/>
<rect x="116" y="404" style="fill:#C2E2F2;" width="16" height="20"/>
<rect x="116" y="400" style="fill:#8FA7B3;" width="16" height="4"/>
<path style="fill:#E6E6E6;" d="M176.104,387.14L176,476h36h96l6.324-68.656l-138.176-55.828l0.008-7.988l0,0l-0.032,26.36
	L176.104,387.14z M192,424v-20v-4h16v4v20H192z M224,424v-20v-4h16v4v20H224z"/>
<polygon style="fill:#CCCCCC;" points="318.892,401.196 176.156,343.528 176.148,351.516 314.324,407.344 308,476 312,476 "/>
<path style="fill:#CC584C;" d="M318.892,401.196l1.532-16.64l-145.852-58.928c-2.044-0.82-4.388,0.172-5.212,2.212l-2.996,7.416
	c-0.824,2.04,0.168,4.384,2.208,5.208l7.584,3.064l0,0L318.892,401.196z"/>
<rect x="192" y="404" style="fill:#C2E2F2;" width="16" height="20"/>
<rect x="192" y="400" style="fill:#8FA7B3;" width="16" height="4"/>
<rect x="224" y="404" style="fill:#C2E2F2;" width="16" height="20"/>
<rect x="224" y="400" style="fill:#8FA7B3;" width="16" height="4"/>
<g>
	<path style="fill:#E6E6E6;" d="M412,172h-28h-8h-12h-24l-6.632,72h85.264L412,172z M336.316,212h79.368l1.472,16h-82.312
		L336.316,212z"/>
	<polygon style="fill:#E6E6E6;" points="418.76,245.416 420.1,260 331.9,260 333.24,245.416 330.42,276 421.58,276 	"/>
	<path style="fill:#E6E6E6;" d="M318.892,401.196L312,476h8h56h10.9c18.076-10.78,34.724-23.696,49.56-38.448L423.052,292h-94.104
		l-8.524,92.556L318.892,401.196z"/>
</g>
<g>
	<polygon style="fill:#CC584C;" points="423.056,292 421.58,276 421.58,276 330.42,276 330.42,276 328.944,292 328.948,292 
		423.052,292 	"/>
	<polygon style="fill:#CC584C;" points="420.1,260 418.76,245.416 418.632,244 418.632,244 333.368,244 333.368,244 333.24,245.416 
		331.9,260 	"/>
	<polygon style="fill:#CC584C;" points="415.684,212 336.316,212 334.844,228 417.156,228 	"/>
</g>
<path style="opacity:0.4;fill:#F5F5F5;enable-background:new    ;" d="M384,172v-36h32c8.8,0,16-7.2,16-16v-8c0-8.8-7.2-16-16-16
	H304c-8.8,0-16,7.2-16,16v4h-64v-8c0-8.8-7.2-16-16-16h-72c-8.8,0-16,7.2-16,16v8c0,8.8,7.2,16,16,16h68v8c0,8.8,7.2,16,16,16h112
	c8.8,0,16-7.2,16-16v-4h16v36h12H384z"/>
<path style="fill:#99602E;" d="M376,476h-56h-8h-4h-96h-36h-4h-36h-10.9c38.308,22.84,83.06,36,130.9,36s92.592-13.16,130.9-36H376z
	"/>
</svg>
