<?xml version="1.0" ?>

<!-- License: CC Attribution. Made by Aireen Ch: https://www.behance.net/aireench -->
<svg width="140px" height="140px" viewBox="0 0 32 32" enable-background="new 0 0 32 32" version="1.1" xml:space="preserve" xmlns="http://www.w3.org/2000/svg" xmlns:xlink="http://www.w3.org/1999/xlink">

<g id="_x36_0"/>

<g id="_x35_9"/>

<g id="_x35_8"/>

<g id="_x35_7"/>

<g id="_x35_6"/>

<g id="_x35_5"/>

<g id="_x35_4"/>

<g id="_x35_3"/>

<g id="_x35_2"/>

<g id="_x35_1"/>

<g id="_x35_0"/>

<g id="_x34_9"/>

<g id="_x34_8"/>

<g id="_x34_7"/>

<g id="_x34_6"/>

<g id="_x34_5"/>

<g id="_x34_4"/>

<g id="_x34_3"/>

<g id="_x34_2"/>

<g id="_x34_1"/>

<g id="_x34_0"/>

<g id="_x33_9"/>

<g id="_x33_8"/>

<g id="_x33_7"/>

<g id="_x33_6"/>

<g id="_x33_5"/>

<g id="_x33_4"/>

<g id="_x33_3"/>

<g id="_x33_2"/>

<g id="_x33_1"/>

<g id="_x33_0"/>

<g id="_x32_9"/>

<g id="_x32_8"/>

<g id="_x32_7"/>

<g id="_x32_6"/>

<g id="_x32_5"/>

<g id="_x32_4_1_"/>

<g id="_x32_3"/>

<g id="_x32_2"/>

<g id="_x32_1"/>

<g id="_x32_0"/>

<g id="_x31_9"/>

<g id="_x31_8"/>

<g id="_x31_7"/>

<g id="_x31_6"/>

<g id="_x31_5"/>

<g id="_x31_4"/>

<g id="_x31_3"/>

<g id="_x31_2"/>

<g id="_x31_1"/>

<g id="_x31_0"/>

<g id="_x39_"/>

<g id="_x38_"/>

<g id="_x37_"/>

<g id="_x36_">

<rect fill="#FCDF65" height="3" width="16" x="8" y="23"/>

<path d="M22,23H10v-5.0000057C10,14.6862888,12.6862888,12,15.9999943,12h0.0000114   C19.3137112,12,22,14.6862888,22,17.9999943V23z" fill="#BB6464"/>

<path d="M24,22h-1v-4c0-3.8598633-3.140625-7-7-7s-7,3.1401367-7,7v4H8c-0.5527344,0-1,0.4477539-1,1v3   c0,0.5522461,0.4472656,1,1,1h12c0.5527344,0,1-0.4477539,1-1c0-0.4301147-0.274292-0.7893677-0.6554565-0.930481L21.4140625,24H23   v2c0,0.5522461,0.4472656,1,1,1s1-0.4477539,1-1v-3C25,22.4477539,24.5527344,22,24,22z M11,18c0-2.7568359,2.2431641-5,5-5   s5,2.2431641,5,5v4H11V18z M9,24h1h1.5859375l-1,1H9V24z M17.5859375,25h-4.171875l1-1h4.171875L17.5859375,25z M11,9V7   c0-0.5522461,0.4472656-1,1-1s1,0.4477539,1,1v2c0,0.5522461-0.4472656,1-1,1S11,9.5522461,11,9z M19,9V7   c0-0.5522461,0.4472656-1,1-1s1,0.4477539,1,1v2c0,0.5522461-0.4472656,1-1,1S19,9.5522461,19,9z M15,9   c0-0.5523071,0.4476929-1,1-1s1,0.4476929,1,1c0,0.5522461-0.4476929,1-1,1S15,9.5522461,15,9z" fill="#4D4D4D"/>

</g>

<g id="_x35_"/>

<g id="_x34_"/>

<g id="_x33_"/>

<g id="_x32_"/>

<g id="_x31_"/>

<g id="Guides"/>

</svg>